<svg width="24" height="24" viewBox="0 0 24 24" fill="none" xmlns="http://www.w3.org/2000/svg">
<path d="M22.0001 7.52156C22.0001 6.17797 21.3058 4.93321 20.1704 4.22619L20.0591 4.15939C15.1502 1.32518 9.11978 1.28093 4.17581 4.02658L3.94104 4.15939L3.82971 4.22619C2.69439 4.93321 2.00004 6.17798 2.00001 7.52156L2.00236 7.7911C2.09658 13.4456 5.15011 18.6458 10.059 21.48C11.2227 22.1519 12.6478 22.1728 13.8278 21.5429L13.9411 21.48C18.85 18.6458 21.9036 13.4456 21.9978 7.7911L22.0001 7.52156ZM23.9978 7.82469C23.8918 14.1808 20.4591 20.0262 14.9411 23.2121C13.1211 24.2628 10.879 24.2628 9.05904 23.2121C3.54105 20.0262 0.108302 14.1808 0.00234376 7.82469L0 7.52156C4.73043e-05 5.42015 1.12111 3.47816 2.94103 2.42733L2.94846 2.42303L2.95627 2.41873L3.19104 2.28592L3.19807 2.28201L3.20471 2.27811C8.76228 -0.808308 15.541 -0.758592 21.0591 2.42733C22.879 3.47816 24.0001 5.42015 24.0001 7.52156L23.9978 7.82469Z" fill="#01A297"/>
<path d="M6.40003 14.0824C6.40003 14.4774 5.90853 14.6199 5.71958 14.273C4.60976 12.2355 4 9.92196 4 7.5215C4.00003 6.84907 4.35871 6.22766 4.94103 5.8914C5.23844 5.71969 5.54054 5.55965 5.8467 5.41131C6.10561 5.28585 6.40003 5.47878 6.40003 5.76648V14.0824Z" fill="#01A297"/>
</svg>
