<svg width="24" height="24" viewBox="0 0 24 24" fill="none" xmlns="http://www.w3.org/2000/svg">
<path d="M4.94103 5.89119C7.97791 4.13785 11.5048 3.60377 14.8404 4.2885C15.535 4.43109 16.0001 5.06492 16.0001 5.77399V14.6052C16.0001 16.3765 15.3515 18.1418 13.8929 19.1467C13.5853 19.3587 13.2679 19.5593 12.9411 19.748C12.3588 20.0841 11.6414 20.0841 11.0591 19.748C6.69104 17.2261 4.00005 12.5654 4 7.52168C4 6.84919 4.35865 6.22746 4.94103 5.89119Z" fill="#01A297"/>
<path d="M22 7.52152C22 6.17794 21.3056 4.93318 20.1703 4.22616L20.059 4.15936C15.1501 1.32517 9.11972 1.28092 4.17578 4.02655L3.94102 4.15936L3.82969 4.22616C2.69437 4.93318 2.00003 6.17794 2 7.52152L2.00234 7.79105C2.09656 13.4455 5.15008 18.6457 10.059 21.4799C11.2227 22.1517 12.6477 22.1727 13.8277 21.5428L13.941 21.4799C18.8499 18.6457 21.9034 13.4455 21.9977 7.79105L22 7.52152ZM23.9977 7.82464C23.8917 14.1807 20.459 20.0261 14.941 23.2119C13.121 24.2627 10.879 24.2627 9.05898 23.2119C3.54103 20.0261 0.108302 14.1807 0.00234375 7.82464L0 7.52152C4.7304e-05 5.42012 1.12111 3.47814 2.94102 2.42731L2.94844 2.42302L2.95625 2.41872L3.19102 2.2859L3.19805 2.282L3.20469 2.27809C8.76223 -0.808303 15.5409 -0.758587 21.059 2.42731C22.8789 3.47814 24 5.42011 24 7.52152L23.9977 7.82464Z" fill="#01A297"/>
</svg>
