<svg width="266" height="53" viewBox="0 0 266 53" fill="none" xmlns="http://www.w3.org/2000/svg">
<path d="M68.3096 38.9849C69.7996 38.9849 70.8994 40.135 70.8994 41.895C70.8993 44.7749 68.8198 46.9252 65.6699 46.9253C65.2399 46.9253 64.8099 46.8944 64.4199 46.7944L63.5693 50.145H61.7598L64.0996 41.0552C64.2596 40.4152 64.3994 39.4851 64.3994 39.105H66.1602C66.1601 39.3619 66.1292 39.6772 66.0996 39.9741C66.7395 39.3344 67.5098 38.9849 68.3096 38.9849ZM151.26 38.9448C152.27 38.9448 153.25 39.3145 153.9 40.0044L153.4 41.605C152.501 40.6152 151.88 40.3746 151.141 40.3745C150.471 40.3745 150.13 40.7148 150.13 41.1147C150.13 41.4347 150.321 41.6453 150.721 41.8853L152.181 42.7651C153.01 43.2451 153.24 43.885 153.24 44.5249C153.24 45.5849 152.38 46.9252 150.36 46.9253C149.19 46.9253 148.23 46.5247 147.45 45.8247L147.851 44.2544C148.911 45.3244 149.601 45.5552 150.391 45.5552C151.24 45.555 151.561 45.1548 151.561 44.7749C151.561 44.5349 151.48 44.3145 151.13 44.0845L151.141 44.0649L149.57 43.1245C148.9 42.7246 148.51 42.105 148.51 41.3452C148.51 39.9353 149.58 38.945 151.26 38.9448ZM83.4502 38.9448C85.4001 38.9448 86.79 40.4647 86.79 42.4946C86.79 44.7645 85.0003 46.9144 82.5205 46.9146C80.5705 46.9146 79.1807 45.3947 79.1807 43.3647C79.1807 41.0948 80.9702 38.9448 83.4502 38.9448ZM92.54 38.9448C94.49 38.9448 95.8798 40.4647 95.8799 42.4946C95.8799 44.7645 94.0902 46.9144 91.6104 46.9146C89.6604 46.9146 88.2705 45.3947 88.2705 43.3647C88.2705 41.0948 90.0601 38.9448 92.54 38.9448ZM111.17 38.9448C113.12 38.9448 114.519 40.4647 114.52 42.4946C114.52 44.7646 112.73 46.9145 110.25 46.9146C108.3 46.9146 106.9 45.3947 106.9 43.3647C106.9 41.0948 108.69 38.9448 111.17 38.9448ZM140.82 43.4644C140.48 44.7741 141.04 45.4046 141.89 45.4048C142.68 45.4048 143.38 44.9545 143.88 44.4146L145.22 39.105H147.01L145.55 44.8345C145.39 45.4744 145.25 46.4046 145.25 46.7847H143.49V46.7749C143.49 46.5049 143.52 46.1545 143.57 45.8345C142.93 46.5344 142.15 46.9047 141.23 46.9048C139.601 46.9048 138.49 45.6848 139.05 43.4351L140.14 39.0952H141.92L140.82 43.4644ZM129.33 39.0854H131.91L131.53 40.5249H128.95L128.02 44.1245C127.83 44.8745 128.08 45.3052 128.87 45.3052V45.3149C129.4 45.3149 129.99 45.1848 130.5 44.9448L130.12 46.4448C129.66 46.6648 129.05 46.8452 128.34 46.8452C126.71 46.8452 125.8 45.8345 126.24 44.1245L127.18 40.5249H125.76L126.14 39.0854H127.55L128.01 37.3452L129.84 37.105L129.33 39.0854ZM158.68 39.0854H161.26L160.88 40.5249H158.3L157.37 44.1245C157.18 44.8744 157.43 45.305 158.22 45.3052L158.23 45.3149C158.76 45.3149 159.35 45.1848 159.86 44.9448L159.48 46.4448C159.02 46.6648 158.41 46.8452 157.7 46.8452C156.07 46.8452 155.161 45.8345 155.601 44.1245L156.54 40.5249H155.12L155.5 39.0854H156.91L157.37 37.3452L159.19 37.105L158.68 39.0854ZM77.8096 38.9849C78.1096 38.9849 78.4796 39.0149 78.8496 39.1948L78.3701 41.0151C77.9902 40.8052 77.57 40.7251 77.1201 40.7251C76.1901 40.7251 75.3394 41.2052 74.8994 42.0552L73.7197 46.7749H71.9297L73.8701 39.0952H75.5996L75.2998 40.2651C75.9998 39.3852 76.8796 38.9849 77.8096 38.9849ZM102.45 35.2251C103.09 35.2252 103.71 35.4349 104.11 35.7349L103.68 37.2046C103.31 36.9447 102.85 36.7749 102.42 36.7749C101.8 36.7749 101.44 37.195 101.25 37.895L100.93 39.0942H103.24L102.86 40.5347H100.57L98.9395 46.7749H97.1504L98.7998 40.5347H97.4102L97.79 39.0942H99.1699L99.5703 37.5942C100 35.9446 101.07 35.2251 102.45 35.2251ZM121.09 35.2251C121.73 35.2251 122.35 35.4349 122.76 35.7349L122.33 37.2046C121.96 36.9446 121.5 36.775 121.07 36.7749C120.45 36.7749 120.09 37.195 119.9 37.895L119.58 39.0942H121.88L121.5 40.5347H119.21L117.58 46.7749H115.79L117.44 40.5347H116.05L116.43 39.0942H117.811L118.21 37.5942C118.64 35.9446 119.71 35.2252 121.09 35.2251ZM137.521 38.9849C137.82 38.9849 138.191 39.0149 138.561 39.1948L138.08 41.0151C137.7 40.8051 137.28 40.7251 136.83 40.7251C135.9 40.7251 135.05 41.2052 134.61 42.0552L133.43 46.7749H131.641L133.58 39.0952H135.311L135.01 40.2651C135.71 39.3851 136.591 38.9849 137.521 38.9849ZM67.79 40.4751C67.02 40.4751 66.2898 40.9052 65.7598 41.5952H65.75L64.8096 45.3052C65.1296 45.4052 65.4999 45.4351 65.8799 45.4351C67.8997 45.435 69.1796 44.055 69.1797 42.0552C69.1797 41.0953 68.6499 40.4752 67.79 40.4751ZM83.2803 40.4751C81.8203 40.4751 80.9004 41.9349 80.9004 43.2749C80.9004 44.6149 81.6507 45.3745 82.6807 45.3745C84.1404 45.3742 85.0605 43.9146 85.0605 42.5747C85.0605 41.2648 84.3102 40.4751 83.2803 40.4751ZM92.3701 40.4751C90.9101 40.4751 89.9902 41.9349 89.9902 43.2749C89.9903 44.6149 90.7405 45.3745 91.7705 45.3745C93.2302 45.3742 94.1504 43.9146 94.1504 42.5747C94.1503 41.2648 93.4 40.4751 92.3701 40.4751ZM111.01 40.4751C109.55 40.4752 108.63 41.9349 108.63 43.2749C108.63 44.6149 109.38 45.3745 110.41 45.3745C111.87 45.3743 112.79 43.9146 112.79 42.5747C112.79 41.2648 112.04 40.4751 111.01 40.4751Z" fill="#0A6561"/>
<path d="M194.44 13.0649C197.55 13.0651 199.59 15.5052 199.59 18.7251C199.59 23.825 195.87 28.355 189.54 28.355C188.92 28.355 188.34 28.2953 187.75 28.2153L186.32 34.0952H179.66L184.061 16.4546C184.37 15.1649 184.541 13.9951 184.561 13.2651H190.83C190.83 13.6494 190.8 14.0919 190.751 14.564C191.808 13.5611 192.986 13.0649 194.44 13.0649ZM223.359 13.0249C228.319 13.0249 230.7 16.3852 230.7 19.8052C230.7 24.4551 226.92 28.4546 221.68 28.4546C216.72 28.4545 214.34 25.0951 214.34 21.6753C214.34 17.0254 218.12 13.0251 223.359 13.0249ZM240.971 13.0249C245.93 13.0251 248.311 16.3853 248.311 19.8052C248.31 24.4551 244.53 28.4546 239.29 28.4546C234.33 28.4545 231.95 25.0951 231.95 21.6753C231.95 17.0253 235.731 13.0249 240.971 13.0249ZM162.3 13.0952C166.44 13.0952 168.18 15.5349 168.18 17.7749L168.17 17.7651C168.17 21.0149 164.919 22.6046 159.27 22.4946C159.66 23.4146 160.67 23.895 162.27 23.895C163.75 23.895 165.49 23.3952 166.83 22.5552L165.46 27.395C164.28 28.035 162.72 28.4351 160.76 28.4351C156.39 28.4351 153.28 25.7448 153.28 21.7749C153.28 16.9349 157.14 13.0952 162.3 13.0952ZM106.01 21.2944C105.73 22.4744 106.26 23.0346 107.05 23.0347C107.55 23.0347 108.03 22.8647 108.42 22.6147L110.74 13.2651H117.38L114.38 24.8052C114.01 26.1751 113.88 27.3552 113.82 28.2251H107.52C107.52 27.7451 107.58 27.2148 107.66 26.6548V26.6353C106.54 27.8352 105 28.3745 103.35 28.3745C100.24 28.3744 98.2799 25.9648 99.2598 21.9351L101.39 13.2554H107.97L106.01 21.2944ZM150.54 24.7847C150.18 26.2446 150.04 27.6145 149.95 28.2046H143.62C143.68 27.6447 143.76 26.9749 143.9 26.355C142.98 27.535 141.72 28.3745 140.04 28.3745C137.38 28.3745 135.141 26.4146 135.141 22.9946C135.141 17.7347 139.51 13.1646 146.17 13.1646C146.42 13.1646 146.67 13.1649 146.93 13.1948L148.19 8.18506L154.99 7.59521L150.54 24.7847ZM89.6504 14.5249C90.7404 13.545 92.1104 13.0952 93.5703 13.0952C96.7302 13.0953 98.8906 15.2755 97.8506 19.3354L95.5801 28.2153H89L90.9902 20.3149C91.3002 19.135 90.7097 18.5747 89.9297 18.5747C89.3099 18.5748 88.8399 18.7952 88.5 19.0552H88.5098L86.21 28.2153H79.6006L84.6396 8.19482L91.3896 7.60498L89.6504 14.5249ZM129.74 13.0952C132.9 13.0954 135.059 15.2748 134.02 19.3345L131.75 28.2144H125.17L127.16 20.3149C127.47 19.1349 126.88 18.5747 126.1 18.5747C125.51 18.5747 125.01 18.7952 124.7 19.0552H124.689L122.37 28.2144H115.76L119.6 13.2651H126.01L125.649 14.6646C126.769 13.5746 128.2 13.0952 129.74 13.0952ZM81.4004 14.4849H75.7197L72.2998 28.2046H65.1006L68.5205 14.4849H62.8896L64.3701 8.60498H82.8799L81.4004 14.4849ZM182 13.0552C182.34 13.0552 182.761 13.0846 183.181 13.1646L181.53 19.3247C181.03 19.0747 180.3 18.9644 179.63 18.9644C178.26 18.9644 176.72 19.4448 175.91 20.7847H175.9L174.05 28.2046H167.41L171.25 13.2544H177.66L177.16 15.2944C178.5 13.7846 180.13 13.0552 182 13.0552ZM213.84 13.0552C214.18 13.0552 214.6 13.0846 215.02 13.1646L213.37 19.3247C212.87 19.0747 212.14 18.9644 211.47 18.9644C210.1 18.9644 208.56 19.4448 207.75 20.7847H207.74L205.89 28.2046H199.25L203.09 13.2544H209.5L209 15.2944C210.34 13.7846 211.97 13.0552 213.84 13.0552ZM261.61 6.59521C263.23 6.59524 264.41 6.98453 265.19 7.37451L264.01 11.9351C263.23 11.5151 262.67 11.4351 262.13 11.4351C260.98 11.4351 260.39 11.9646 260.2 12.7544L260.061 13.2544H263.67L262.44 18.1851H258.811L256.21 28.2046H249.66L252.351 18.1851H249.69L250.92 13.2544H253.66L253.97 12.1343C254.98 8.38449 257.53 6.59521 261.61 6.59521ZM145.13 18.3745C142.97 18.3746 141.32 19.8049 141.32 21.4849C141.32 22.6048 142.05 23.2251 142.94 23.2251L142.95 23.2144C143.62 23.2143 144.07 22.9646 144.55 22.5747L145.61 18.3745H145.13ZM191.58 18.5454C190.94 18.5454 190.43 18.745 189.96 19.105V19.1147L188.98 23.145C189.32 23.205 189.68 23.2251 190.07 23.2251C191.81 23.225 193.23 21.8246 193.23 20.2847C193.23 19.1948 192.53 18.5454 191.58 18.5454ZM222.8 18.4946C221.43 18.4946 220.48 19.7248 220.479 21.1548C220.479 22.3047 221.12 23.1752 222.22 23.1753C223.59 23.1753 224.54 21.9444 224.54 20.5444V20.5347C224.54 19.3548 223.9 18.4946 222.8 18.4946ZM240.41 18.4946C239.04 18.4947 238.09 19.7249 238.09 21.1548C238.09 22.3047 238.73 23.1752 239.83 23.1753C241.2 23.1753 242.15 21.9444 242.15 20.5444V20.5347C242.15 19.3548 241.51 18.4946 240.41 18.4946ZM161.81 17.4048C160.75 17.4049 159.79 18.1349 159.35 19.4448C162.26 19.5048 162.93 18.8246 162.93 18.2446C162.93 17.7647 162.54 17.4048 161.81 17.4048Z" fill="#003133"/>
<path d="M3.56998 6.8849C17.82 -1.3451 35.38 -1.3451 49.63 6.8849C51.53 7.9849 52.7 10.0049 52.7 12.2049C52.7 28.6649 43.92 43.8649 29.67 52.0949C27.77 53.1949 25.43 53.1949 23.53 52.0949C9.28 43.8649 0.5 28.6649 0.5 12.2049C0.5 10.0149 1.66998 7.9849 3.56998 6.8849Z" fill="#F9FAFA"/>
<path d="M51.6602 9.50488C51.8302 8.98596 52.2601 9.92456 52.3203 10.085C52.5903 10.7549 52.7002 11.4951 52.7002 12.2051C52.7002 28.6651 43.9199 43.8657 29.6699 52.0957C27.7701 53.1955 25.4301 53.1954 23.5303 52.0957C21.1803 50.7357 18.99 49.1951 16.96 47.4951L31.4902 40.8857L32.0098 38.8252L36.7295 19.8555H48.2998C48.2998 19.8555 51.6402 9.57488 51.6602 9.50488ZM3.57031 6.88477C17.2802 -1.03495 34.07 -1.3347 48.0098 5.99512C48.1998 6.09512 48.1399 6.39527 47.9199 6.40527L12.6504 8.70508L9.54004 21.0352L21.6396 19.8555L15.1504 45.8955C5.92039 37.2955 0.5 25.1351 0.5 12.2051C0.500038 10.0051 1.67034 7.98475 3.57031 6.88477Z" fill="#01A297"/>
</svg>
